<svg xmlns="http://www.w3.org/2000/svg" width="360" height="240" viewBox="0 0 360 240">

  <!-- ROW 1 -->

  <!-- 1. Poké Ball: red top, standard -->
  <circle cx="30" cy="30" r="20" fill="none" stroke="white" stroke-opacity="0.16" stroke-width="2.5"/>
  <path d="M 10,30 A 20,20 0 0,1 50,30" fill="#9580FF" fill-opacity="0.2"/>
  <line x1="10" y1="30" x2="50" y2="30" stroke="white" stroke-opacity="0.16" stroke-width="2.5"/>
  <circle cx="30" cy="30" r="5" fill="none" stroke="white" stroke-opacity="0.16" stroke-width="2.5"/>
  <circle cx="30" cy="30" r="2" fill="white" fill-opacity="0.3"/>

  <!-- 2. Master Ball: purple top + M + two dots -->
  <circle cx="90" cy="30" r="20" fill="none" stroke="white" stroke-opacity="0.16" stroke-width="2.5"/>
  <path d="M 70,30 A 20,20 0 0,1 110,30" fill="#9580FF" fill-opacity="0.2"/>
  <line x1="70" y1="30" x2="110" y2="30" stroke="white" stroke-opacity="0.16" stroke-width="2.5"/>
  <text x="90" y="23" font-size="8" font-family="sans-serif" font-weight="bold" text-anchor="middle" dominant-baseline="middle" fill="#9580FF" fill-opacity="0.75">M</text>
  <circle cx="82" cy="28" r="1.5" fill="#9580FF" fill-opacity="0.6"/>
  <circle cx="98" cy="28" r="1.5" fill="#9580FF" fill-opacity="0.6"/>
  <circle cx="90" cy="30" r="5" fill="none" stroke="white" stroke-opacity="0.16" stroke-width="2.5"/>
  <circle cx="90" cy="30" r="2" fill="white" fill-opacity="0.3"/>

  <!-- 3. Ultra Ball: black/yellow top + V mark -->
  <circle cx="150" cy="30" r="20" fill="none" stroke="white" stroke-opacity="0.16" stroke-width="2.5"/>
  <path d="M 130,30 A 20,20 0 0,1 170,30" fill="#80FFEA" fill-opacity="0.18"/>
  <line x1="130" y1="30" x2="170" y2="30" stroke="#80FFEA" stroke-width="2.5" stroke-opacity="0.18"/>
  <polyline points="143,17 150,26 157,17" fill="none" stroke="#80FFEA" stroke-width="2.5" stroke-opacity="0.18"/>
  <circle cx="150" cy="30" r="5" fill="none" stroke="#80FFEA" stroke-width="2.5" stroke-opacity="0.18"/>
  <circle cx="150" cy="30" r="2" fill="#80FFEA" fill-opacity="0.5"/>

  <!-- 4. Great Ball: blue top + horizontal red accent stripe -->
  <circle cx="210" cy="30" r="20" fill="none" stroke="white" stroke-opacity="0.16" stroke-width="2.5"/>
  <path d="M 190,30 A 20,20 0 0,1 230,30" fill="white" fill-opacity="0.07"/>
  <line x1="190" y1="30" x2="230" y2="30" stroke="white" stroke-opacity="0.16" stroke-width="2.5"/>
  <line x1="192" y1="22" x2="228" y2="22" stroke="#9580FF" stroke-width="2.5" stroke-opacity="0.09"/>
  <circle cx="210" cy="30" r="5" fill="none" stroke="white" stroke-opacity="0.16" stroke-width="2.5"/>
  <circle cx="210" cy="30" r="2" fill="white" fill-opacity="0.3"/>

  <!-- 5. Premier Ball: white/minimal top + red ring outline -->
  <circle cx="270" cy="30" r="20" fill="none" stroke="white" stroke-opacity="0.16" stroke-width="2.5"/>
  <path d="M 250,30 A 20,20 0 0,1 290,30" fill="#9580FF" fill-opacity="0.08"/>
  <path d="M 252,30 A 18,18 0 0,1 288,30" fill="none" stroke="#9580FF" stroke-width="2" stroke-opacity="0.11"/>
  <line x1="250" y1="30" x2="290" y2="30" stroke="white" stroke-opacity="0.16" stroke-width="2.5"/>
  <circle cx="270" cy="30" r="5" fill="none" stroke="#9580FF" stroke-width="2.5" stroke-opacity="0.16"/>
  <circle cx="270" cy="30" r="2" fill="#9580FF" fill-opacity="0.4"/>

  <!-- 6. Level Ball: yellow top + inner horizontal stripe on upper half -->
  <circle cx="330" cy="30" r="20" fill="none" stroke="white" stroke-opacity="0.16" stroke-width="2.5"/>
  <path d="M 310,30 A 20,20 0 0,1 350,30" fill="#80FFEA" fill-opacity="0.18"/>
  <line x1="310" y1="30" x2="350" y2="30" stroke="white" stroke-opacity="0.16" stroke-width="2.5"/>
  <line x1="313" y1="22" x2="347" y2="22" stroke="#80FFEA" stroke-width="2.5" stroke-opacity="0.14"/>
  <circle cx="330" cy="30" r="5" fill="none" stroke="white" stroke-opacity="0.16" stroke-width="2.5"/>
  <circle cx="330" cy="30" r="2" fill="white" fill-opacity="0.3"/>

  <!-- ROW 2 -->

  <!-- 7. Lure Ball: orange/cyan top + C mark -->
  <circle cx="30" cy="90" r="20" fill="none" stroke="white" stroke-opacity="0.16" stroke-width="2.5"/>
  <path d="M 10,90 A 20,20 0 0,1 50,90" fill="#80FFEA" fill-opacity="0.22"/>
  <line x1="10" y1="90" x2="50" y2="90" stroke="#80FFEA" stroke-width="2.5" stroke-opacity="0.18"/>
  <text x="30" y="81" font-size="10" font-family="sans-serif" font-weight="bold" text-anchor="middle" dominant-baseline="middle" fill="#80FFEA" fill-opacity="0.7">C</text>
  <circle cx="30" cy="90" r="5" fill="none" stroke="white" stroke-opacity="0.16" stroke-width="2.5"/>
  <circle cx="30" cy="90" r="2" fill="white" fill-opacity="0.3"/>

  <!-- 8. Nest Ball: green top + concentric ring arcs -->
  <circle cx="90" cy="90" r="20" fill="none" stroke="white" stroke-opacity="0.16" stroke-width="2.5"/>
  <path d="M 70,90 A 20,20 0 0,1 110,90" fill="white" fill-opacity="0.06"/>
  <line x1="70" y1="90" x2="110" y2="90" stroke="white" stroke-opacity="0.16" stroke-width="2.5"/>
  <path d="M 80,90 A 10,10 0 0,1 100,90" fill="none" stroke="white" stroke-width="2" stroke-opacity="0.14"/>
  <path d="M 85,90 A 5,5 0 0,1 95,90" fill="none" stroke="white" stroke-width="1" stroke-opacity="0.11"/>
  <circle cx="90" cy="90" r="5" fill="none" stroke="white" stroke-opacity="0.16" stroke-width="2.5"/>
  <circle cx="90" cy="90" r="2" fill="white" fill-opacity="0.3"/>

  <!-- 9. Repeat Ball: red top + Y shape -->
  <circle cx="150" cy="90" r="20" fill="none" stroke="white" stroke-opacity="0.16" stroke-width="2.5"/>
  <path d="M 130,90 A 20,20 0 0,1 170,90" fill="#9580FF" fill-opacity="0.2"/>
  <line x1="130" y1="90" x2="170" y2="90" stroke="white" stroke-opacity="0.16" stroke-width="2.5"/>
  <line x1="143" y1="74" x2="150" y2="83" stroke="#9580FF" stroke-width="2.5" stroke-opacity="0.16"/>
  <line x1="157" y1="74" x2="150" y2="83" stroke="#9580FF" stroke-width="2.5" stroke-opacity="0.16"/>
  <line x1="150" y1="83" x2="150" y2="90" stroke="#9580FF" stroke-width="2.5" stroke-opacity="0.16"/>
  <circle cx="150" cy="90" r="5" fill="none" stroke="white" stroke-opacity="0.16" stroke-width="2.5"/>
  <circle cx="150" cy="90" r="2" fill="white" fill-opacity="0.3"/>

  <!-- 10. Safari Ball: camo top + irregular blobs -->
  <circle cx="210" cy="90" r="20" fill="none" stroke="white" stroke-opacity="0.16" stroke-width="2.5"/>
  <path d="M 190,90 A 20,20 0 0,1 230,90" fill="white" fill-opacity="0.05"/>
  <line x1="190" y1="90" x2="230" y2="90" stroke="white" stroke-opacity="0.16" stroke-width="2.5"/>
  <circle cx="202" cy="78" r="3" fill="white" fill-opacity="0.12"/>
  <circle cx="213" cy="83" r="2.5" fill="white" fill-opacity="0.1"/>
  <circle cx="220" cy="75" r="2" fill="white" fill-opacity="0.12"/>
  <circle cx="208" cy="72" r="2" fill="white" fill-opacity="0.1"/>
  <circle cx="218" cy="84" r="1.5" fill="white" fill-opacity="0.12"/>
  <circle cx="210" cy="90" r="5" fill="none" stroke="white" stroke-opacity="0.16" stroke-width="2.5"/>
  <circle cx="210" cy="90" r="2" fill="white" fill-opacity="0.3"/>

  <!-- 11. Net Ball: cyan top + diamond lattice -->
  <circle cx="270" cy="90" r="20" fill="none" stroke="white" stroke-opacity="0.16" stroke-width="2.5"/>
  <path d="M 250,90 A 20,20 0 0,1 290,90" fill="#80FFEA" fill-opacity="0.18"/>
  <line x1="250" y1="90" x2="290" y2="90" stroke="white" stroke-opacity="0.16" stroke-width="2.5"/>
  <line x1="253" y1="90" x2="270" y2="71" stroke="#80FFEA" stroke-width="1" stroke-opacity="0.11"/>
  <line x1="287" y1="90" x2="270" y2="71" stroke="#80FFEA" stroke-width="1" stroke-opacity="0.11"/>
  <line x1="261" y1="90" x2="270" y2="76" stroke="#80FFEA" stroke-width="1" stroke-opacity="0.08"/>
  <line x1="279" y1="90" x2="270" y2="76" stroke="#80FFEA" stroke-width="1" stroke-opacity="0.08"/>
  <circle cx="270" cy="90" r="5" fill="none" stroke="white" stroke-opacity="0.16" stroke-width="2.5"/>
  <circle cx="270" cy="90" r="2" fill="white" fill-opacity="0.3"/>

  <!-- 12. Friend Ball: green top + S mark -->
  <circle cx="330" cy="90" r="20" fill="none" stroke="white" stroke-opacity="0.16" stroke-width="2.5"/>
  <path d="M 310,90 A 20,20 0 0,1 350,90" fill="white" fill-opacity="0.06"/>
  <line x1="310" y1="90" x2="350" y2="90" stroke="white" stroke-opacity="0.16" stroke-width="2.5"/>
  <text x="330" y="81" font-size="10" font-family="sans-serif" font-weight="bold" text-anchor="middle" dominant-baseline="middle" fill="#6272A4" fill-opacity="0.75">S</text>
  <circle cx="330" cy="90" r="5" fill="none" stroke="white" stroke-opacity="0.16" stroke-width="2.5"/>
  <circle cx="330" cy="90" r="2" fill="white" fill-opacity="0.3"/>

  <!-- ROW 3 -->

  <!-- 13. Heavy Ball: dark top + two small oval buttons -->
  <circle cx="30" cy="150" r="20" fill="none" stroke="white" stroke-opacity="0.16" stroke-width="2.5"/>
  <path d="M 10,150 A 20,20 0 0,1 50,150" fill="white" fill-opacity="0.04"/>
  <line x1="10" y1="150" x2="50" y2="150" stroke="white" stroke-opacity="0.16" stroke-width="2.5"/>
  <circle cx="21" cy="142" r="3.5" fill="none" stroke="white" stroke-width="2" stroke-opacity="0.16"/>
  <circle cx="39" cy="142" r="3.5" fill="none" stroke="white" stroke-width="2" stroke-opacity="0.16"/>
  <circle cx="30" cy="150" r="5" fill="none" stroke="white" stroke-opacity="0.16" stroke-width="2.5"/>
  <circle cx="30" cy="150" r="2" fill="white" fill-opacity="0.3"/>

  <!-- 14. Dusk Ball: dark top + starburst -->
  <circle cx="90" cy="150" r="20" fill="none" stroke="white" stroke-opacity="0.16" stroke-width="2.5"/>
  <path d="M 70,150 A 20,20 0 0,1 110,150" fill="#80FFEA" fill-opacity="0.14"/>
  <line x1="70" y1="150" x2="110" y2="150" stroke="#80FFEA" stroke-width="2.5" stroke-opacity="0.18"/>
  <polygon points="90,132 92,139 99,139 93,143 95,150 90,146 85,150 87,143 81,139 88,139" fill="#80FFEA" fill-opacity="0.25" stroke="#80FFEA" stroke-width="0.5" stroke-opacity="0.11"/>
  <circle cx="90" cy="150" r="5" fill="none" stroke="#80FFEA" stroke-width="2.5" stroke-opacity="0.18"/>
  <circle cx="90" cy="150" r="2" fill="#80FFEA" fill-opacity="0.5"/>

  <!-- 15. Timer Ball: white/yellow top + X mark -->
  <circle cx="150" cy="150" r="20" fill="none" stroke="white" stroke-opacity="0.16" stroke-width="2.5"/>
  <path d="M 130,150 A 20,20 0 0,1 170,150" fill="#9580FF" fill-opacity="0.15"/>
  <line x1="130" y1="150" x2="170" y2="150" stroke="white" stroke-opacity="0.16" stroke-width="2.5"/>
  <line x1="141" y1="135" x2="159" y2="149" stroke="#9580FF" stroke-width="2.5" stroke-opacity="0.12"/>
  <line x1="159" y1="135" x2="141" y2="149" stroke="#9580FF" stroke-width="2.5" stroke-opacity="0.12"/>
  <circle cx="150" cy="150" r="5" fill="none" stroke="white" stroke-opacity="0.16" stroke-width="2.5"/>
  <circle cx="150" cy="150" r="2" fill="white" fill-opacity="0.3"/>

  <!-- 16. Cherish Ball: pink top + scattered dots -->
  <circle cx="210" cy="150" r="20" fill="none" stroke="white" stroke-opacity="0.16" stroke-width="2.5"/>
  <path d="M 190,150 A 20,20 0 0,1 230,150" fill="#9580FF" fill-opacity="0.15"/>
  <line x1="190" y1="150" x2="230" y2="150" stroke="#9580FF" stroke-width="2.5" stroke-opacity="0.16"/>
  <circle cx="200" cy="141" r="1.5" fill="#9580FF" fill-opacity="0.65"/>
  <circle cx="210" cy="135" r="1.5" fill="#9580FF" fill-opacity="0.65"/>
  <circle cx="220" cy="141" r="1.5" fill="#9580FF" fill-opacity="0.65"/>
  <circle cx="216" cy="148" r="1.5" fill="#9580FF" fill-opacity="0.65"/>
  <circle cx="204" cy="148" r="1.5" fill="#9580FF" fill-opacity="0.65"/>
  <circle cx="210" cy="150" r="5" fill="none" stroke="white" stroke-opacity="0.16" stroke-width="2.5"/>
  <circle cx="210" cy="150" r="2" fill="white" fill-opacity="0.3"/>

  <!-- 17. Fast Ball: yellow top + speed lines -->
  <circle cx="270" cy="150" r="20" fill="none" stroke="white" stroke-opacity="0.16" stroke-width="2.5"/>
  <path d="M 250,150 A 20,20 0 0,1 290,150" fill="#80FFEA" fill-opacity="0.18"/>
  <line x1="250" y1="150" x2="290" y2="150" stroke="white" stroke-opacity="0.16" stroke-width="2.5"/>
  <line x1="254" y1="139" x2="276" y2="139" stroke="#80FFEA" stroke-width="2.5" stroke-opacity="0.15"/>
  <line x1="257" y1="144" x2="283" y2="144" stroke="#80FFEA" stroke-width="2.5" stroke-opacity="0.15"/>
  <circle cx="270" cy="150" r="5" fill="none" stroke="white" stroke-opacity="0.16" stroke-width="2.5"/>
  <circle cx="270" cy="150" r="2" fill="white" fill-opacity="0.3"/>

  <!-- 18. Luxury Ball: dark top + thick gold band -->
  <circle cx="330" cy="150" r="20" fill="none" stroke="white" stroke-opacity="0.16" stroke-width="2.5"/>
  <path d="M 310,150 A 20,20 0 0,1 350,150" fill="white" fill-opacity="0.03"/>
  <line x1="310" y1="150" x2="350" y2="150" stroke="white" stroke-width="5" stroke-opacity="0.14"/>
  <circle cx="330" cy="150" r="5" fill="none" stroke="white" stroke-opacity="0.16" stroke-width="2.5"/>
  <circle cx="330" cy="150" r="2" fill="white" fill-opacity="0.3"/>

  <!-- ROW 4 -->

  <!-- 19. Dive Ball: cyan top + wave pattern -->
  <circle cx="30" cy="210" r="20" fill="none" stroke="white" stroke-opacity="0.16" stroke-width="2.5"/>
  <path d="M 10,210 A 20,20 0 0,1 50,210" fill="#80FFEA" fill-opacity="0.22"/>
  <line x1="10" y1="210" x2="50" y2="210" stroke="#80FFEA" stroke-width="2.5" stroke-opacity="0.18"/>
  <path d="M 12,200 Q 18,195 24,200 Q 30,205 36,200 Q 42,195 48,200" fill="none" stroke="#80FFEA" stroke-width="2" stroke-opacity="0.15"/>
  <path d="M 14,206 Q 20,202 26,206 Q 32,210 38,206 Q 44,202 46,206" fill="none" stroke="#80FFEA" stroke-width="1" stroke-opacity="0.09"/>
  <circle cx="30" cy="210" r="5" fill="none" stroke="#80FFEA" stroke-width="2.5" stroke-opacity="0.18"/>
  <circle cx="30" cy="210" r="2" fill="#80FFEA" fill-opacity="0.5"/>

  <!-- 20. Sport Ball: white/teal + zigzag on band -->
  <circle cx="90" cy="210" r="20" fill="none" stroke="white" stroke-opacity="0.16" stroke-width="2.5"/>
  <path d="M 70,210 A 20,20 0 0,1 110,210" fill="#80FFEA" fill-opacity="0.1"/>
  <line x1="70" y1="210" x2="110" y2="210" stroke="white" stroke-opacity="0.16" stroke-width="2.5"/>
  <polyline points="70,210 77,204 84,210 91,204 98,210 105,204 110,210" fill="none" stroke="#80FFEA" stroke-width="2" stroke-opacity="0.12"/>
  <circle cx="90" cy="210" r="5" fill="none" stroke="white" stroke-opacity="0.16" stroke-width="2.5"/>
  <circle cx="90" cy="210" r="2" fill="white" fill-opacity="0.3"/>

  <!-- 21. Moon Ball: dark top + crescent arc -->
  <circle cx="150" cy="210" r="20" fill="none" stroke="white" stroke-opacity="0.16" stroke-width="2.5"/>
  <path d="M 130,210 A 20,20 0 0,1 170,210" fill="#9580FF" fill-opacity="0.15"/>
  <line x1="130" y1="210" x2="170" y2="210" stroke="white" stroke-opacity="0.16" stroke-width="2.5"/>
  <path d="M 144,197 A 8,8 0 0,1 144,203" fill="none" stroke="#9580FF" stroke-width="2.5" stroke-opacity="0.15"/>
  <circle cx="150" cy="210" r="5" fill="none" stroke="white" stroke-opacity="0.16" stroke-width="2.5"/>
  <circle cx="150" cy="210" r="2" fill="white" fill-opacity="0.3"/>

  <!-- 22. Love Ball: pink top + heart -->
  <circle cx="210" cy="210" r="20" fill="none" stroke="white" stroke-opacity="0.16" stroke-width="2.5"/>
  <path d="M 190,210 A 20,20 0 0,1 230,210" fill="#9580FF" fill-opacity="0.15"/>
  <line x1="190" y1="210" x2="230" y2="210" stroke="#9580FF" stroke-width="2.5" stroke-opacity="0.16"/>
  <path d="M 210,202 C 210,200 208,197 205,199 C 202,201 205,205 210,209 C 215,205 218,201 215,199 C 212,197 210,200 210,202 Z" fill="#9580FF" fill-opacity="0.45"/>
  <circle cx="210" cy="210" r="5" fill="none" stroke="white" stroke-opacity="0.16" stroke-width="2.5"/>
  <circle cx="210" cy="210" r="2" fill="white" fill-opacity="0.3"/>

  <!-- 23. Heal Ball / Park Ball: green top + plus cross -->
  <circle cx="270" cy="210" r="20" fill="none" stroke="white" stroke-opacity="0.16" stroke-width="2.5"/>
  <path d="M 250,210 A 20,20 0 0,1 290,210" fill="white" fill-opacity="0.06"/>
  <line x1="250" y1="210" x2="290" y2="210" stroke="white" stroke-opacity="0.16" stroke-width="2.5"/>
  <line x1="270" y1="194" x2="270" y2="208" stroke="white" stroke-width="2.5" stroke-opacity="0.16"/>
  <line x1="263" y1="201" x2="277" y2="201" stroke="white" stroke-width="2.5" stroke-opacity="0.16"/>
  <circle cx="270" cy="210" r="5" fill="none" stroke="white" stroke-opacity="0.16" stroke-width="2.5"/>
  <circle cx="270" cy="210" r="2" fill="white" fill-opacity="0.3"/>

  <!-- 24. Dream Ball: pink/magenta top + sparkle -->
  <circle cx="330" cy="210" r="20" fill="none" stroke="white" stroke-opacity="0.16" stroke-width="2.5"/>
  <path d="M 310,210 A 20,20 0 0,1 350,210" fill="#9580FF" fill-opacity="0.2"/>
  <line x1="310" y1="210" x2="350" y2="210" stroke="#9580FF" stroke-width="2.5" stroke-opacity="0.16"/>
  <line x1="330" y1="193" x2="330" y2="207" stroke="#9580FF" stroke-width="2.5" stroke-opacity="0.14"/>
  <line x1="322" y1="196" x2="338" y2="204" stroke="#9580FF" stroke-width="2.5" stroke-opacity="0.14"/>
  <line x1="338" y1="196" x2="322" y2="204" stroke="#9580FF" stroke-width="2.5" stroke-opacity="0.14"/>
  <circle cx="330" cy="210" r="5" fill="none" stroke="#9580FF" stroke-width="2.5" stroke-opacity="0.18"/>
  <circle cx="330" cy="210" r="2" fill="#9580FF" fill-opacity="0.5"/>

</svg>
